<?xml version="1.0" encoding="UTF-8"?>
<!DOCTYPE svg PUBLIC "-//W3C//DTD SVG 1.1//EN" "http://www.w3.org/Graphics/SVG/1.1/DTD/svg11.dtd">
<svg xmlns="http://www.w3.org/2000/svg" version="1.1" width="128px" height="127px" style="shape-rendering:geometricPrecision; text-rendering:geometricPrecision; image-rendering:optimizeQuality; fill-rule:evenodd; clip-rule:evenodd" xmlns:xlink="http://www.w3.org/1999/xlink">
<g><path style="opacity:1" fill="#f7f8f9" d="M 48.5,-0.5 C 58.1667,-0.5 67.8333,-0.5 77.5,-0.5C 110.664,3.33499 127.331,22.0017 127.5,55.5C 127.5,60.8333 127.5,66.1667 127.5,71.5C 127.671,85.8224 123.504,98.8224 115,110.5C 106.606,119.344 96.4391,124.677 84.5,126.5C 70.5,126.5 56.5,126.5 42.5,126.5C 18.2913,122.625 3.958,108.625 -0.5,84.5C -0.5,70.5 -0.5,56.5 -0.5,42.5C 4.90159,15.7678 21.2349,1.43448 48.5,-0.5 Z"/></g>
<g><path style="opacity:1" fill="#0c78fa" d="M 39.5,22.5 C 54.1705,22.3334 68.8371,22.5001 83.5,23C 98.6249,30.0351 102.458,41.2017 95,56.5C 90.6566,63.2627 84.4899,67.4294 76.5,69C 71.1771,69.4994 65.8437,69.666 60.5,69.5C 60.201,65.4702 59.201,61.6368 57.5,58C 63.2488,57.8522 68.9155,57.1856 74.5,56C 83.2507,49.2339 83.5841,42.2339 75.5,35C 68.8417,34.5004 62.175,34.3337 55.5,34.5C 54.3102,57.1478 53.6436,79.8144 53.5,102.5C 47.8333,102.5 42.1667,102.5 36.5,102.5C 37.8804,75.8489 38.8804,49.1823 39.5,22.5 Z"/></g>
</svg>
